<?xml version="1.0" encoding="UTF-8"?>
<svg id="Layer_2" data-name="Layer 2" xmlns="http://www.w3.org/2000/svg" viewBox="0 0 56 56">
  <defs>
    <style>
      .cls-1 {
        fill: #fff;
      }

      .cls-2 {
        fill: #66f;
      }
    </style>
  </defs>
  <g id="Layer_1-2" data-name="Layer 1">
    <g>
      <circle class="cls-2" cx="28" cy="28" r="28"/>
      <g>
        <path class="cls-1" d="m38.95,18.9l-1.59-1.07-4.14-2.8c-.49-.33-1.16-.2-1.5.29l-2.37,3.51c-.33.49-.2,1.16.29,1.5l3.25,2.19c.49.33.62,1,.29,1.5l-6.31,9.34c-.33.49-1,.62-1.5.29l-3.25-2.19c-.49-.33-1.16-.2-1.5.29l-2.37,3.51c-.33.49-.2,1.16.29,1.5l4.14,2.8,1.59,1.07,4.14,2.8c.49.33,1.16.2,1.5-.29l13.47-19.94c.33-.49.2-1.16-.29-1.5l-4.14-2.8Z"/>
        <g>
          <path class="cls-1" d="m12.91,29.82c-.07-.27-1.75-6.58,1.63-11.59,3.38-5.01,9.87-5.81,10.15-5.84l.26,2.23-.13-1.12.13,1.12c-.06,0-5.75.73-8.54,4.86-2.79,4.14-1.34,9.68-1.32,9.74l-2.17.59Z"/>
          <path class="cls-1" d="m16.84,28.98c-.05-.19-1.27-4.76,1.19-8.4,2.45-3.63,7.15-4.21,7.35-4.23l.26,2.23s-3.88.5-5.74,3.26c-1.87,2.76-.89,6.51-.88,6.54l-2.17.59Z"/>
          <path class="cls-1" d="m20.63,28.53c-.04-.13-.85-3.19.8-5.64,1.65-2.45,4.8-2.84,4.93-2.85l.26,2.23-.13-1.12.13,1.12s-2.26.3-3.33,1.88c-1.07,1.58-.5,3.77-.5,3.79l-2.17.59Z"/>
        </g>
      </g>
    </g>
  </g>
</svg>