<?xml version="1.0" encoding="UTF-8"?>
<svg id="Layer_2" data-name="Layer 2" xmlns="http://www.w3.org/2000/svg" viewBox="0 0 38.94 38.74">
  <defs>
    <style>
      .cls-1 {
        fill: #99f;
      }
    </style>
  </defs>
  <g id="Layer_1-2" data-name="Layer 1">
    <g>
      <path class="cls-1" d="m19.47,22.41c-6.79,0-12.31-5.03-12.31-11.21S12.68,0,19.47,0s12.31,5.03,12.31,11.21-5.52,11.21-12.31,11.21Zm0-19.32c-5.08,0-9.22,3.64-9.22,8.12s4.14,8.11,9.22,8.11,9.22-3.64,9.22-8.11S24.55,3.09,19.47,3.09Z"/>
      <path class="cls-1" d="m38.94,38.74H0l.05-1.6c.16-4.61,2.27-8.92,5.94-12.12,3.64-3.17,8.42-4.92,13.47-4.92s9.84,1.75,13.47,4.92c3.67,3.2,5.78,7.51,5.94,12.12l.05,1.6Zm-35.64-3.09h32.35c-1.11-7.1-7.9-12.45-16.17-12.45s-15.06,5.35-16.17,12.45Z"/>
    </g>
  </g>
</svg>