<?xml version="1.0" encoding="UTF-8"?>
<svg id="Layer_2" data-name="Layer 2" xmlns="http://www.w3.org/2000/svg" viewBox="0 0 48 60.64">
  <defs>
    <style>
      .cls-1 {
        fill: #99f;
      }

      .cls-2 {
        fill: #66c;
      }
    </style>
  </defs>
  <g id="Layer_1-2" data-name="Layer 1">
    <g>
      <g>
        <path class="cls-1" d="m38.08,39.03h-8.37c-2.43,0-4.41-1.98-4.41-4.41v-8.37c0-2.43,1.98-4.41,4.41-4.41h8.37c2.43,0,4.41,1.98,4.41,4.41v8.37c0,2.43-1.98,4.41-4.41,4.41Zm-8.37-14.1c-.73,0-1.32.59-1.32,1.32v8.37c0,.73.59,1.32,1.32,1.32h8.37c.73,0,1.32-.59,1.32-1.32v-8.37c0-.73-.59-1.32-1.32-1.32h-8.37Z"/>
        <path class="cls-1" d="m16.44,39.03h-8.37c-2.43,0-4.41-1.98-4.41-4.41v-8.37c0-2.43,1.98-4.41,4.41-4.41h8.37c2.43,0,4.41,1.98,4.41,4.41v8.37c0,2.43-1.98,4.41-4.41,4.41Zm-8.37-14.1c-.73,0-1.32.59-1.32,1.32v8.37c0,.73.59,1.32,1.32,1.32h8.37c.73,0,1.32-.59,1.32-1.32v-8.37c0-.73-.59-1.32-1.32-1.32h-8.37Z"/>
        <path class="cls-1" d="m38.08,17.19h-8.37c-2.43,0-4.41-1.98-4.41-4.41V4.41c0-2.43,1.98-4.41,4.41-4.41h8.37c2.43,0,4.41,1.98,4.41,4.41v8.37c0,2.43-1.98,4.41-4.41,4.41ZM29.71,3.09c-.73,0-1.32.59-1.32,1.32v8.37c0,.73.59,1.32,1.32,1.32h8.37c.73,0,1.32-.59,1.32-1.32V4.41c0-.73-.59-1.32-1.32-1.32h-8.37Z"/>
        <path class="cls-1" d="m12.35,17.29c-4.74,0-8.6-3.86-8.6-8.6S7.61.1,12.35.1s8.6,3.86,8.6,8.6-3.86,8.6-8.6,8.6Zm0-14.1c-3.04,0-5.51,2.47-5.51,5.51s2.47,5.51,5.51,5.51,5.51-2.47,5.51-5.51-2.47-5.51-5.51-5.51Z"/>
      </g>
      <g>
        <path class="cls-2" d="m7.61,54.47c0,1.04-.37,1.8-1.12,2.29-.44.29-.93.43-1.46.43h-1.63c-.72,0-1.32-.28-1.8-.83-.46-.53-.69-1.16-.69-1.89v-2.18h.99v2.3c0,.47.17.85.52,1.15.33.28.73.42,1.2.42h1.36c.41,0,.79-.13,1.11-.4.35-.28.53-.62.53-1.03,0-.35-.24-.58-.72-.69-.13-.03-.22-.04-.26-.04h-1.46v-1.81c0-.54.17-.99.52-1.34s.79-.53,1.34-.53h1.27l.04.99h-1.27c-.38,0-.64.17-.79.5-.07.16-.11.56-.13,1.2.83,0,1.39.05,1.66.15.54.2.8.64.8,1.31Z"/>
        <path class="cls-2" d="m15.16,54.52h-.48c-.4,0-.84-.24-1.34-.73-.32.48-.78.73-1.4.73h-3.27l-.15-1.05h3.35c.39,0,.58-.13.58-.4,0-.15-.05-.28-.17-.4l-2.37-2.53.71-.71,3.17,3.36c.28.29.47.47.57.53.18.1.44.15.79.15v1.05Z"/>
        <path class="cls-2" d="m19.16,54.52h-.35c-.66,0-1.15-.14-1.46-.41-.35.27-.69.41-1.01.41h-1.73v-1.05c1.09,0,1.7-.03,1.84-.08.23-.08.35-.4.35-.94v-1.25h1.05v1.45c0,.52.44.79,1.31.81v1.05Zm-2.3-4.97c0,.21-.07.38-.21.53s-.32.22-.52.22c-.54,0-.8-.25-.8-.74,0-.42.25-.63.76-.63s.77.21.77.63Z"/>
        <path class="cls-2" d="m22.02,52.8c0,.45-.14.85-.42,1.18-.3.36-.67.53-1.11.53h-1.73v-1.05c1.11,0,1.72-.02,1.85-.06.23-.09.35-.4.35-.95,0-.14,0-.34,0-.62,0-.28,0-.49,0-.62h1.08v1.59Zm-1.24,3.69c0,.21-.07.38-.21.52s-.32.21-.52.21c-.52,0-.79-.24-.79-.73,0-.42.25-.63.76-.63s.76.21.76.63Z"/>
        <path class="cls-2" d="m29.15,54.52c-.46,0-.8-.06-1.01-.18-.11-.06-.47-.38-1.1-.97-.4.84-1.04,1.27-1.93,1.27-.58,0-1.06-.19-1.44-.57s-.57-.86-.57-1.44.41-1.32,1.22-2.14l-.3-.34.71-.71,3.16,3.36c.28.29.46.46.53.51.15.09.39.14.72.16v1.05Zm-3.02-1.82c0-.26-.07-.45-.2-.58l-.85-.84c-.33.31-.53.52-.62.62-.21.27-.31.53-.31.8s.09.5.28.67.41.25.69.25.5-.09.71-.26.3-.39.3-.66Z"/>
        <path class="cls-2" d="m33.5,54.52c-.43,0-.76-.01-.97-.05-.18-.07-.36-.19-.54-.36-.34.27-.67.41-1,.41h-2.27v-1.05h1.96c.29,0,.5-.06.61-.18.11-.12.17-.33.17-.63v-1.45h1.06v1.45c0,.35.08.58.24.69.12.08.38.12.75.12v1.05Zm-2.33-5.06c0,.18-.06.33-.19.45s-.28.18-.46.18c-.5,0-.74-.21-.74-.63,0-.39.22-.59.67-.59.48,0,.73.2.73.59Zm2.02,0c0,.18-.06.33-.19.45s-.28.18-.46.18c-.5,0-.74-.21-.74-.63,0-.39.22-.59.67-.59.48,0,.73.2.73.59Z"/>
        <path class="cls-2" d="m41.42,52.83c0,.52-.12.95-.36,1.27-.27.36-.65.54-1.16.54s-.97-.24-1.42-.71c-.4.47-.83.71-1.28.71-.48,0-.96-.28-1.44-.84-.42.48-.88.73-1.38.73h-1.34v-1.05h1.27c.49,0,.73-.26.73-.79v-1.47h1.03v1.56c0,.25.09.46.27.62.18.16.4.24.65.24.48,0,.72-.22.72-.66v-1.76h1.03v1.56c0,.25.09.45.27.62.18.16.39.24.64.24.49,0,.74-.22.74-.66v-1.76h1.03v1.62Z"/>
        <path class="cls-2" d="m47.32,53.14c0,.42-.16.76-.47,1.02-.29.24-.65.36-1.08.36h-3.27l-.15-1.05h3.35c.39,0,.59-.14.59-.41,0-.14-.05-.27-.16-.38l-2.37-2.52.71-.72,2.38,2.51c.33.35.49.75.49,1.2Z"/>
      </g>
    </g>
  </g>
</svg>