<?xml version="1.0" encoding="UTF-8"?>
<svg id="Layer_2" data-name="Layer 2" xmlns="http://www.w3.org/2000/svg" viewBox="0 0 39 63.27">
  <defs>
    <style>
      .cls-1 {
        fill: #99f;
      }

      .cls-2 {
        fill: #66c;
      }
    </style>
  </defs>
  <g id="Layer_1-2" data-name="Layer 1">
    <g>
      <g>
        <path class="cls-1" d="m32.89,38.73H6.16c-3.34,0-6.05-2.42-6.05-5.39v-14.7c0-2.52,1.19-4.96,3.28-6.7L16.44,1.08c1.73-1.44,4.44-1.44,6.17,0l13.05,10.86c2.08,1.73,3.28,4.17,3.28,6.7v14.7c0,2.97-2.71,5.39-6.05,5.39ZM19.52,3.09c-.41,0-.81.12-1.11.37L5.36,14.32c-1.4,1.16-2.16,2.7-2.16,4.32v14.7c0,1.27,1.33,2.3,2.96,2.3h26.73c1.63,0,2.96-1.03,2.96-2.3v-14.7c0-1.62-.77-3.16-2.16-4.32L20.63,3.46c-.3-.25-.7-.37-1.11-.37Z"/>
        <path class="cls-1" d="m25.75,31h-12.46c-2.01,0-3.65-1.5-3.65-3.34v-6.85c0-1.42.67-2.79,1.83-3.76l6.08-5.06c1.12-.93,2.81-.93,3.93,0l6.08,5.06c1.16.97,1.83,2.33,1.83,3.76v6.85c0,1.84-1.64,3.34-3.65,3.34Zm-6.58-16.33l-5.72,4.76c-.46.38-.71.87-.71,1.38v6.53c0,.31.24.57.54.57,0,0,0,0,.01,0h12.46s0,0,.01,0c.31,0,.54-.27.54-.57v-6.53c0-.51-.25-1-.71-1.38l-5.72-4.76c-.19-.16-.51-.16-.7,0Z"/>
      </g>
      <g>
        <path class="cls-2" d="m16.15,56.13c-.54,0-.93-.07-1.18-.21-.12-.07-.55-.45-1.29-1.13-.46.98-1.21,1.48-2.25,1.48-.68,0-1.24-.22-1.68-.66s-.66-1-.66-1.68.48-1.54,1.43-2.5l-.35-.4.83-.83,3.68,3.92c.32.34.53.54.62.59.17.1.45.17.84.19v1.23Zm-3.52-2.13c0-.3-.08-.53-.23-.68l-.99-.98c-.38.36-.62.6-.72.72-.24.31-.36.62-.36.94s.11.58.32.78.48.3.81.3.59-.1.82-.3c.24-.2.35-.46.35-.77Z"/>
        <path class="cls-2" d="m19.46,54.13c0,.53-.16.99-.49,1.38-.35.41-.78.62-1.29.62h-2.02v-1.22c1.29,0,2.01-.02,2.15-.08.27-.1.41-.47.41-1.11,0-.16,0-.4,0-.73,0-.32-.01-.57-.01-.73h1.26v1.86Zm-1.21-3.79c0,.24-.08.45-.25.62-.17.17-.37.25-.6.25-.62,0-.94-.29-.94-.87,0-.49.3-.73.89-.73s.9.24.9.73Z"/>
        <path class="cls-2" d="m23.38,56.13c-1.04,0-1.77-.2-2.19-.6-.28-.26-.42-.69-.42-1.28v-5.82h1.23v5.28c0,.57.1.92.29,1.05.12.08.49.13,1.1.14v1.23Z"/>
        <path class="cls-2" d="m29.92,53.75l-2.82,1.61c-.66.38-1.35.61-2.08.7-.36.05-1.1.07-2.21.07v-1.23c1.59,0,2.71-.15,3.37-.46.05-.02.35-.18.89-.46.34-.18.84-.46,1.5-.84-.16-.33-.42-.55-.79-.64-.16-.04-.52-.05-1.09-.05h-2.15l-.17-1.22h3.04c1.67,0,2.51.85,2.51,2.54Zm-2.37-4.74c0,.23-.08.43-.25.6s-.37.25-.6.25c-.62,0-.93-.28-.93-.85,0-.49.3-.74.9-.74s.89.25.89.74Z"/>
      </g>
    </g>
  </g>
</svg>