<?xml version="1.0" encoding="UTF-8"?>
<svg id="Layer_2" data-name="Layer 2" xmlns="http://www.w3.org/2000/svg" viewBox="0 0 46 61.31">
  <defs>
    <style>
      .cls-1 {
        fill: #99f;
      }

      .cls-2 {
        fill: #66c;
      }
    </style>
  </defs>
  <g id="Layer_1-2" data-name="Layer 1">
    <g>
      <g>
        <path class="cls-1" d="m31.56,40.38c-2.79,0-5.06-2.23-5.06-4.97s2.27-4.97,5.06-4.97,5.06,2.23,5.06,4.97-2.27,4.97-5.06,4.97Zm0-6.85c-1.09,0-1.97.84-1.97,1.88s.88,1.88,1.97,1.88,1.97-.84,1.97-1.88-.88-1.88-1.97-1.88Z"/>
        <path class="cls-1" d="m13.45,40.38c-2.79,0-5.06-2.23-5.06-4.97s2.27-4.97,5.06-4.97,5.06,2.23,5.06,4.97-2.27,4.97-5.06,4.97Zm0-6.85c-1.09,0-1.97.84-1.97,1.88s.88,1.88,1.97,1.88,1.97-.84,1.97-1.88-.88-1.88-1.97-1.88Z"/>
        <path class="cls-1" d="m38.19,33.36H7.05c-1.81,0-3.29-1.45-3.29-3.24V7.88c0-1.79,1.48-3.24,3.29-3.24h31.34v-1.94C38.39,1.21,39.61,0,41.12,0h2.78c.82,0,1.54.62,1.6,1.44.06.9-.65,1.65-1.54,1.65h-2.46v1.94c0,1.49-1.22,2.7-2.73,2.7l-30.83.05c-.56,0-1.02.46-1.02,1.02v20.41c0,.56.46,1.02,1.02,1.02h29.39c.56,0,1.02-.45,1.02-1.01v-12.5c0-.56-.45-1.02-1.01-1.02l-21.65-.04c-.39,0-.71.32-.71.71v7.43c0,.39.32.71.71.71h12.52c.39,0,.71-.32.71-.71v-3.78c0-.82.62-1.54,1.44-1.6.9-.06,1.65.65,1.65,1.54v4.95c0,1.48-1.21,2.68-2.71,2.68h-14.7c-1.49,0-2.71-1.2-2.71-2.68v-9.67c0-1.48,1.21-2.68,2.71-2.68h23.62c1.81,0,3.29,1.45,3.29,3.24v14.33c0,1.79-1.48,3.24-3.29,3.24Z"/>
      </g>
      <g>
        <path class="cls-2" d="m7.93,55.2h-.48c-.4,0-.84-.24-1.34-.73-.32.48-.78.73-1.4.73H1.44l-.15-1.05h3.35c.39,0,.58-.13.58-.4,0-.15-.05-.28-.17-.4l-2.37-2.53.71-.71,3.17,3.36c.28.29.47.47.57.53.18.1.44.15.79.15v1.05Z"/>
        <path class="cls-2" d="m11.17,53.48c0,.46-.13.85-.4,1.18-.29.36-.66.53-1.1.53h-2.26v-1.05h1.93c.29,0,.5-.06.61-.18.11-.12.17-.33.17-.63v-1.45h1.05v1.59Zm-2.2,3.74c0,.18-.07.33-.2.45s-.29.18-.47.18c-.2,0-.36-.05-.5-.16-.15-.12-.23-.27-.23-.46,0-.39.22-.59.67-.59.49,0,.73.2.73.59Zm2.02,0c0,.18-.07.33-.2.45s-.29.18-.47.18c-.2,0-.36-.05-.5-.16-.15-.12-.23-.27-.23-.46,0-.39.22-.59.67-.59.49,0,.73.2.73.59Z"/>
        <path class="cls-2" d="m17.14,55.2c-.53,0-.91-.17-1.13-.5,0,.88-.22,1.62-.66,2.2-.48.64-1.15.97-2.01.97h-1.37l-.17-1.05h1.45c.45,0,.84-.14,1.17-.43.34-.3.51-.67.51-1.12v-3.38h1.05v1.52c0,.48.38.72,1.15.74v1.05Z"/>
        <path class="cls-2" d="m22.8,53.16l-2.41,1.38c-.57.32-1.16.53-1.78.6-.31.04-.94.06-1.89.06v-1.05c1.36,0,2.33-.13,2.89-.4.04-.02.3-.15.76-.4.29-.16.72-.4,1.29-.72-.14-.29-.36-.47-.68-.55-.14-.03-.45-.05-.93-.05h-1.85l-.15-1.05h2.6c1.43,0,2.15.72,2.15,2.17Zm-2.03-4.06c0,.2-.07.37-.22.52s-.32.22-.52.22c-.53,0-.8-.24-.8-.73,0-.42.26-.63.77-.63s.76.21.76.63Z"/>
        <path class="cls-2" d="m32.92,55.2h-.48c-.4,0-.84-.24-1.34-.73-.32.48-.78.73-1.4.73h-3.27l-.15-1.05h3.35c.39,0,.58-.13.58-.4,0-.15-.05-.28-.17-.4l-2.37-2.53.71-.71,3.17,3.36c.28.29.47.47.57.53.18.1.44.15.79.15v1.05Z"/>
        <path class="cls-2" d="m36.94,55.2h-.33c-.6,0-1.05-.14-1.37-.41-.35.27-.69.41-1.01.41h-1.73v-1.05c1.09,0,1.7-.03,1.84-.08.23-.08.35-.4.35-.95v-1.24h1.07v1.45c0,.34.12.57.35.69.14.07.41.11.82.12v1.05Zm-2.49,1.91c0,.21-.07.38-.21.52s-.31.21-.52.21c-.53,0-.79-.24-.79-.73,0-.42.25-.63.76-.63s.77.21.77.63Z"/>
        <path class="cls-2" d="m44.88,53.5c0,.52-.12.95-.36,1.27-.27.36-.65.54-1.16.54s-.97-.24-1.42-.71c-.4.47-.83.71-1.28.71-.48,0-.96-.28-1.44-.84-.42.48-.88.73-1.38.73h-1.34v-1.05h1.27c.49,0,.73-.26.73-.79v-1.47h1.03v1.56c0,.25.09.46.27.62.18.16.4.24.65.24.48,0,.72-.22.72-.66v-1.76h1.03v1.56c0,.25.09.45.27.62.18.16.39.24.64.24.49,0,.74-.22.74-.66v-1.76h1.03v1.62Z"/>
      </g>
    </g>
  </g>
</svg>