<?xml version="1.0" encoding="UTF-8"?>
<svg id="Layer_2" data-name="Layer 2" xmlns="http://www.w3.org/2000/svg" viewBox="0 0 30.45 44.48">
  <defs>
    <style>
      .cls-1 {
        fill: #f66;
      }
    </style>
  </defs>
  <g id="Layer_1-2" data-name="Layer 1">
    <g>
      <path class="cls-1" d="m30.45,44.48H0V10.55h24.1v26.86H6.66v-19.09h9.83v11.1c0,.7-.57,1.27-1.27,1.27s-1.27-.57-1.27-1.27v-8.57h-4.76v14.01h12.37V13.08H2.54v28.86h25.37V11.81c0-.7.57-1.27,1.27-1.27s1.27.57,1.27,1.27v32.66Z"/>
      <path class="cls-1" d="m29.18,7.89H1.27c-.7,0-1.27-.57-1.27-1.27s.57-1.27,1.27-1.27h27.91c.7,0,1.27.57,1.27,1.27s-.57,1.27-1.27,1.27Z"/>
      <path class="cls-1" d="m20.89,2.54h-11.33c-.7,0-1.27-.57-1.27-1.27s.57-1.27,1.27-1.27h11.33c.7,0,1.27.57,1.27,1.27s-.57,1.27-1.27,1.27Z"/>
    </g>
  </g>
</svg>